PathFileType	4	(X/Y/Z)	D:\TRACE\spot_10-12-23\spot_arm_body_motion_1_9-platform.trc
DataRate	CameraRate	NumFrames	NumMarkers	Units	OrigDataRate	OrigDataStartFrame	OrigNumFrames
100.00	100.00	      24	5	mm	100.00	6126	      7000
Frame#	Time	Left_Front			Right_Front			Left_Aft			Right_Aft			Post			
		X1	Y1	Z1	X2	Y2	Z2	X3	Y3	Z3	X4	Y4	Z4	X5	Y5	Z5	

6126	61.250	-829.45197	20.23281	-650.16534	737.95880	17.64947	-625.59003	-760.73956	6.49531	488.29364	646.13916	3.57469	590.59259	-41.34549	751.53815	-951.50311	
6127	61.260	-828.98431	20.61563	-650.04755	738.33197	17.92144	-625.40295	-760.39563	6.23658	488.43350	646.66205	3.25499	590.65350	-40.92179	752.28717	-951.35077	
6128	61.270	-828.41815	20.98780	-649.98523	738.66370	18.22655	-625.34509	-759.95050	6.02613	488.61176	647.12573	2.88149	590.80432	-40.63269	752.90332	-951.13135	
6129	61.280	-828.06262	21.22930	-649.87866	739.15179	18.72577	-625.24481	-759.54260	5.66308	488.75018	647.39056	2.47062	590.86835	-40.28131	753.26855	-950.88525	
6130	61.290	-827.69507	21.54484	-649.81915	739.55389	19.08266	-625.21320	-759.04578	5.41005	488.80933	647.60431	2.10974	591.05115	-40.17175	753.95868	-950.52637	
6131	61.300	-827.30664	22.01563	-649.64423	740.15222	19.59219	-625.10925	-758.70581	5.27825	488.87537	648.17578	1.79911	591.19073	-39.53561	754.67548	-949.77924	
6132	61.310	-826.93805	22.52530	-649.54504	740.64258	20.11089	-624.96613	-758.32336	4.99998	489.01898	648.73358	1.60445	591.27112	-38.92280	755.00092	-949.26166	
6133	61.320	-826.33679	22.97815	-649.42865	741.11328	20.39192	-624.90228	-757.86694	4.72404	489.10101	649.16345	1.38911	591.38983	-38.46544	755.51489	-948.50653	
6134	61.330	-825.94812	23.24177	-649.39832	741.51691	20.63528	-624.86273	-757.17578	4.47603	489.12564	649.62341	0.97110	591.46429	-38.16354	756.20630	-947.71558	
6135	61.340	-825.36267	23.38269	-649.25244	741.93103	20.89696	-624.75616	-756.65747	4.26632	489.21600	650.06860	0.65450	591.60291	-37.84174	756.77551	-947.08453	
6136	61.350	-824.75647	23.63957	-649.10907	742.40814	21.25922	-624.57275	-756.24945	4.02647	489.30026	650.42029	0.35353	591.63489	-37.04651	757.00012	-946.18390	
6137	61.360	-824.23822	24.10971	-649.09528	742.97443	21.73449	-624.46893	-755.78802	3.78258	489.36020	650.97797	0.09146	591.65509	-36.61048	757.57129	-945.71143	
6138	61.370	-823.71973	24.67812	-649.05591	743.45264	22.04463	-624.49084	-755.26691	3.50241	489.51212	651.57001	-0.14565	591.66833	-35.94825	758.28809	-945.04462	
6139	61.380	-823.51331	25.03293	-648.79205	744.00366	22.41582	-624.37012	-754.66174	3.37619	489.60196	652.09399	-0.37149	591.73224	-35.62588	758.89178	-944.72302	
6140	61.390	-822.79999	25.33823	-648.91699	744.60590	22.74973	-624.26764	-754.06689	3.02892	489.67511	652.77545	-0.81854	591.82843	-35.19081	759.27490	-944.40375	
6141	61.400	-822.26166	25.68658	-648.69788	745.23053	23.12948	-624.15326	-753.46313	2.61224	489.72989	653.24036	-1.20395	591.98224	-34.55978	759.65930	-944.07410	
6142	61.410	-821.62299	25.96083	-648.52502	745.70435	23.31136	-623.93469	-752.89209	2.38550	489.85922	653.65039	-1.33461	592.05090	-33.81681	760.25940	-943.80591	
6143	61.420	-820.79388	26.21791	-648.42828	746.27246	23.69153	-623.86664	-752.39313	2.17675	489.91254	654.44525	-1.64858	592.19507	-33.01792	760.89386	-943.41406	
6144	61.430	-820.18604	26.51469	-648.35529	746.94653	24.21988	-623.76941	-751.84113	1.90861	490.03259	655.08099	-1.91544	592.25879	-32.52450	761.29712	-943.11523	
6145	61.440	-819.69885	26.88282	-648.24438	747.69043	24.57853	-623.70551	-751.24738	1.80741	490.06418	655.60583	-2.16148	592.34021	-32.19147	761.73187	-942.92767	
6146	61.450	-819.31036	27.32075	-648.21704	748.37433	24.82303	-623.56378	-750.56476	1.63790	490.18564	656.26593	-2.52617	592.41272	-31.47375	762.27496	-942.41724	
6147	61.460	-818.75342	27.72471	-648.20361	748.98572	25.14439	-623.54285	-749.74683	1.34029	490.29434	656.89764	-2.77743	592.48273	-30.59553	762.75464	-941.78650	
6148	61.470	-817.83167	28.06182	-648.10260	749.49835	25.40733	-623.50031	-749.22272	0.99210	490.41333	657.56299	-2.89167	592.58038	-30.00576	763.09497	-941.30615	
6149	61.480	-817.11957	28.27379	-647.86407	750.14331	25.76901	-623.33807	-748.62250	0.85306	490.51837	658.48645	-3.12880	592.71326	-29.66287	763.58612	-940.70428	
